<?xml version="1.0" encoding="UTF-8"?>
<svg xmlns="http://www.w3.org/2000/svg" width="72" height="72" viewBox="0 0 72 72" fill="none">
  <path d="M14.0303 22.0243L3.33006 15.9082C2.52606 15.4487 2.72476 14.2374 3.63345 14.0588L44.2735 6.07131C44.5077 6.02529 44.7506 6.06452 44.9583 6.1819L68.6408 19.5628C69.4497 20.0199 69.2524 21.2369 68.3404 21.415L58.5758 23.3209M14.0303 22.0243L26.7378 29.2877C26.946 29.4067 27.1901 29.4469 27.4256 29.401L58.5758 23.3209M14.0303 22.0243L1 24.7326M1 24.7326L27.0606 39.1771M1 24.7326V55.4271M27.0606 39.1771L44.6364 35.8368M27.0606 39.1771V71M71 30.8264L58.5758 23.3209M71 30.8264V61.5208M71 30.8264L44.6364 35.8368M71 61.5208L27.0606 71M71 61.5208L44.6364 46.625M27.0606 71L1 55.4271M1 55.4271L44.6364 46.625M44.6364 46.625V35.8368" stroke="#ffffff"></path>
  <path d="M3.82243 8.53222L44.2997 1.06212C44.5179 1.02185 44.7433 1.0553 44.9404 1.15719L68.4188 13.294C69.2638 13.7308 69.0792 14.9894 68.1443 15.1651L27.4049 22.8232C27.182 22.8651 26.9515 22.83 26.7512 22.7237L3.53502 10.3989C2.69824 9.95464 2.89077 8.70416 3.82243 8.53222Z" stroke="#ffffff" stroke-dasharray="4 4"></path>
  <circle cx="28" cy="22" r="5" fill="#5454c6"></circle>
</svg>
