<?xml version="1.0" encoding="UTF-8"?>
<svg xmlns="http://www.w3.org/2000/svg" width="70" height="70" viewBox="0 0 70 70" fill="none">
  <path fill-rule="evenodd" clip-rule="evenodd" d="M68.5329 2.16798L69.9969 0.703987L69.2898 -0.00312021L67.8258 1.46088L68.5329 2.16798ZM62.677 8.02398L65.6049 5.09598L64.8978 4.38888L61.9698 7.31688L62.677 8.02398ZM56.8209 13.88L59.749 10.952L59.0418 10.2449L56.1138 13.1729L56.8209 13.88ZM50.9649 19.736L53.8929 16.808L53.1858 16.1009L50.2578 19.0289L50.9649 19.736ZM45.1089 25.592L48.0369 22.664L47.3298 21.9569L44.4018 24.8849L45.1089 25.592ZM39.2529 31.448L42.1809 28.52L41.4738 27.8129L38.5458 30.7409L39.2529 31.448ZM33.3969 37.304L36.3249 34.376L35.6178 33.6689L32.6898 36.5969L33.3969 37.304ZM27.5409 43.16L30.4689 40.232L29.7618 39.5249L26.8338 42.4529L27.5409 43.16ZM23.1489 47.552L24.6129 46.088L23.9058 45.3809L22.4418 46.8449L23.1489 47.552ZM0.779399 28.6472L28.7225 0.704055L28.0154 -0.00305176L0.0722921 27.9401L0.779399 28.6472ZM0.704116 15.1652L15.0146 0.854742L14.3075 0.147635L-0.00299072 14.4581L0.704116 15.1652ZM42.3552 0.779459L0.704116 42.4305L-0.00299072 41.7234L41.6481 0.0723521L42.3552 0.779459ZM0.704116 56.1385L56.0631 0.779459L55.356 0.0723521L-0.00299072 55.4313L0.704116 56.1385ZM22.7723 47.9286L0.779358 69.9216L0.0722516 69.2145L22.0652 47.2215L22.7723 47.9286ZM69.771 14.3367L14.2614 69.8463L13.5543 69.1392L69.0639 13.6296L69.771 14.3367ZM28.1953 69.9217L69.8463 28.2707L69.1392 27.5636L27.4881 69.2146L28.1953 69.9217ZM69.771 41.8279L41.6772 69.9216L40.9701 69.2145L69.0639 41.1208L69.771 41.8279ZM55.6111 69.997L69.9969 55.6112L69.2898 54.9041L54.904 69.2899L55.6111 69.997Z" fill="#ffffff"></path>
  <circle cx="23" cy="47" r="5" fill="#5454c6"></circle>
</svg>
