<?xml version="1.0" encoding="UTF-8"?>
<svg xmlns="http://www.w3.org/2000/svg" width="70" height="70" viewBox="0 0 70 70" fill="none">
  <circle cx="26" cy="26" r="5" fill="#5454c6"></circle>
  <path d="M24.3333 42.5455V42.0455H23.8333H10.834C8.46487 42.0422 6.16273 41.1483 4.31648 39.5042C2.61275 37.9869 1.39343 35.9157 0.834954 33.5909H51.165C50.6066 35.9157 49.3872 37.9869 47.6835 39.5042C45.8373 41.1483 43.5351 42.0422 41.166 42.0455H28.1667H27.6667V42.5455V47.2727V47.7727H28.1667H36.8333C37.2606 47.7727 37.6802 47.9575 37.9968 48.3029C38.3148 48.6497 38.5 49.1287 38.5 49.6364C38.5 50.144 38.3148 50.623 37.9968 50.9698C37.6802 51.3152 37.2606 51.5 36.8333 51.5H15.1667C14.7394 51.5 14.3198 51.3152 14.0032 50.9698C13.6853 50.623 13.5 50.144 13.5 49.6364C13.5 49.1287 13.6853 48.6497 14.0032 48.3029C14.3198 47.9575 14.7394 47.7727 15.1667 47.7727H23.8333H24.3333V47.2727V42.5455ZM3.54539 3.80347C5.48662 1.68577 8.10876 0.503652 10.8337 0.5H41.1663C43.8912 0.503652 46.5134 1.68577 48.4546 3.80347C50.3972 5.92271 51.4967 8.80457 51.5 11.8187V27.8636H0.5V11.8185C0.503375 8.8044 1.60281 5.92265 3.54539 3.80347Z" stroke="#ffffff"></path>
</svg>
