<?xml version="1.0" encoding="UTF-8"?>
<svg xmlns="http://www.w3.org/2000/svg" width="70" height="70" viewBox="0 0 70 70" fill="none">
  <mask id="path-1-inside-1_570_165" fill="white">
    <path d="M35 70C42.7532 70 50.287 67.4256 56.4188 62.6809C62.5507 57.9362 66.9336 51.2898 68.8796 43.7848C70.8256 36.2797 70.2246 28.341 67.1708 21.2145C64.117 14.088 58.7834 8.17724 52.0071 4.40982L51.6741 5.00872C58.3178 8.70237 63.547 14.4974 66.541 21.4844C69.5349 28.4714 70.1242 36.2547 68.2163 43.6128C66.3084 50.9709 62.0113 57.4872 55.9995 62.139C49.9877 66.7908 42.6014 69.3148 35 69.3148V70Z"></path>
  </mask>
  <path d="M35 70C42.7532 70 50.287 67.4256 56.4188 62.6809C62.5507 57.9362 66.9336 51.2898 68.8796 43.7848C70.8256 36.2797 70.2246 28.341 67.1708 21.2145C64.117 14.088 58.7834 8.17724 52.0071 4.40982L51.6741 5.00872C58.3178 8.70237 63.547 14.4974 66.541 21.4844C69.5349 28.4714 70.1242 36.2547 68.2163 43.6128C66.3084 50.9709 62.0113 57.4872 55.9995 62.139C49.9877 66.7908 42.6014 69.3148 35 69.3148V70Z" stroke="#ffffff" stroke-width="2" stroke-dasharray="4 4" mask="url(#path-1-inside-1_570_165)"></path>
  <mask id="path-2-inside-2_570_165" fill="white">
    <path d="M49.3502 3.07711C44.589 0.936821 39.4094 -0.111352 34.1907 0.00935903C28.9719 0.130071 23.8463 1.41661 19.1891 3.77475C14.532 6.13288 10.4613 9.50289 7.27524 13.6379C4.08916 17.773 1.86838 22.5684 0.775557 27.6728C-0.317266 32.7773 -0.254456 38.0616 0.959386 43.1386C2.17323 48.2156 4.50736 52.9569 7.79082 57.015C11.0743 61.0732 15.2239 64.3455 19.9358 66.5922C24.6477 68.839 29.8024 70.0034 35.0226 70L35.0221 69.3148C29.9042 69.3181 24.8503 68.1765 20.2307 65.9737C15.6111 63.7709 11.5427 60.5627 8.32353 56.584C5.10435 52.6053 2.81591 47.9569 1.62583 42.9793C0.435756 38.0016 0.374176 32.8208 1.4456 27.8163C2.51703 22.8118 4.69433 18.1103 7.81803 14.0562C10.9417 10.0021 14.9327 6.69804 19.4987 4.38607C24.0646 2.07411 29.0899 0.812754 34.2065 0.694406C39.3231 0.576058 44.4013 1.60371 49.0693 3.70209L49.3502 3.07711Z"></path>
  </mask>
  <path d="M49.3502 3.07711C44.589 0.936821 39.4094 -0.111352 34.1907 0.00935903C28.9719 0.130071 23.8463 1.41661 19.1891 3.77475C14.532 6.13288 10.4613 9.50289 7.27524 13.6379C4.08916 17.773 1.86838 22.5684 0.775557 27.6728C-0.317266 32.7773 -0.254456 38.0616 0.959386 43.1386C2.17323 48.2156 4.50736 52.9569 7.79082 57.015C11.0743 61.0732 15.2239 64.3455 19.9358 66.5922C24.6477 68.839 29.8024 70.0034 35.0226 70L35.0221 69.3148C29.9042 69.3181 24.8503 68.1765 20.2307 65.9737C15.6111 63.7709 11.5427 60.5627 8.32353 56.584C5.10435 52.6053 2.81591 47.9569 1.62583 42.9793C0.435756 38.0016 0.374176 32.8208 1.4456 27.8163C2.51703 22.8118 4.69433 18.1103 7.81803 14.0562C10.9417 10.0021 14.9327 6.69804 19.4987 4.38607C24.0646 2.07411 29.0899 0.812754 34.2065 0.694406C39.3231 0.576058 44.4013 1.60371 49.0693 3.70209L49.3502 3.07711Z" stroke="#ffffff" stroke-width="2" mask="url(#path-2-inside-2_570_165)"></path>
  <circle cx="35" cy="40.9035" r="28.5964" stroke="#ffffff"></circle>
  <circle cx="34.9999" cy="46.807" r="22.6928" stroke="#ffffff"></circle>
  <circle cx="34.9998" cy="52.7109" r="16.7892" stroke="#ffffff"></circle>
  <circle cx="34.9999" cy="57.771" r="11.7289" stroke="#ffffff"></circle>
  <circle cx="52" cy="5" r="5" fill="#5454c6"></circle>
</svg>
